<mxfile host="app.diagrams.net" modified="2024-03-13T01:01:09.243Z" agent="Mozilla/5.0 (Windows NT 10.0; Win64; x64) AppleWebKit/537.36 (KHTML, like Gecko) Chrome/122.0.0.0 Safari/537.36 Edg/122.0.0.0" etag="an--G-X_PqYkoPS-CWNo" version="24.0.4" type="device">
  <diagram name="Página-1" id="Gw0TOLP7J8iacjJjVvf0">
    <mxGraphModel dx="2601" dy="813" grid="1" gridSize="10" guides="1" tooltips="1" connect="1" arrows="1" fold="1" page="1" pageScale="1" pageWidth="827" pageHeight="1169" math="0" shadow="0">
      <root>
        <mxCell id="0" />
        <mxCell id="1" parent="0" />
        <mxCell id="X64Ka9JGiY_M8rTZH1Nw-3" value="" style="edgeStyle=orthogonalEdgeStyle;rounded=0;orthogonalLoop=1;jettySize=auto;html=1;" edge="1" parent="1" source="X64Ka9JGiY_M8rTZH1Nw-1" target="X64Ka9JGiY_M8rTZH1Nw-2">
          <mxGeometry relative="1" as="geometry">
            <Array as="points">
              <mxPoint x="70" y="210" />
              <mxPoint x="150" y="210" />
            </Array>
          </mxGeometry>
        </mxCell>
        <mxCell id="X64Ka9JGiY_M8rTZH1Nw-1" value="INICIO" style="ellipse;whiteSpace=wrap;html=1;fillColor=#5EA9FF;" vertex="1" parent="1">
          <mxGeometry x="10" y="40" width="120" height="80" as="geometry" />
        </mxCell>
        <mxCell id="X64Ka9JGiY_M8rTZH1Nw-5" value="" style="edgeStyle=orthogonalEdgeStyle;rounded=0;orthogonalLoop=1;jettySize=auto;html=1;" edge="1" parent="1" source="X64Ka9JGiY_M8rTZH1Nw-2" target="X64Ka9JGiY_M8rTZH1Nw-4">
          <mxGeometry relative="1" as="geometry" />
        </mxCell>
        <mxCell id="X64Ka9JGiY_M8rTZH1Nw-2" value="&quot;Ingresar números&quot;" style="shape=parallelogram;perimeter=parallelogramPerimeter;whiteSpace=wrap;html=1;fixedSize=1;fillColor=#80FF00;" vertex="1" parent="1">
          <mxGeometry x="90" y="230" width="150" height="60" as="geometry" />
        </mxCell>
        <mxCell id="X64Ka9JGiY_M8rTZH1Nw-7" value="" style="edgeStyle=orthogonalEdgeStyle;rounded=0;orthogonalLoop=1;jettySize=auto;html=1;" edge="1" parent="1" source="X64Ka9JGiY_M8rTZH1Nw-4" target="X64Ka9JGiY_M8rTZH1Nw-6">
          <mxGeometry relative="1" as="geometry" />
        </mxCell>
        <mxCell id="X64Ka9JGiY_M8rTZH1Nw-11" value="" style="edgeStyle=orthogonalEdgeStyle;rounded=0;orthogonalLoop=1;jettySize=auto;html=1;" edge="1" parent="1" source="X64Ka9JGiY_M8rTZH1Nw-4" target="X64Ka9JGiY_M8rTZH1Nw-10">
          <mxGeometry relative="1" as="geometry" />
        </mxCell>
        <mxCell id="X64Ka9JGiY_M8rTZH1Nw-4" value="¿Que operación desea realizar?" style="rhombus;whiteSpace=wrap;html=1;fillColor=#474D0A;" vertex="1" parent="1">
          <mxGeometry x="91.25" y="400" width="147.5" height="130" as="geometry" />
        </mxCell>
        <mxCell id="X64Ka9JGiY_M8rTZH1Nw-9" value="" style="edgeStyle=orthogonalEdgeStyle;rounded=0;orthogonalLoop=1;jettySize=auto;html=1;" edge="1" parent="1" source="X64Ka9JGiY_M8rTZH1Nw-6" target="X64Ka9JGiY_M8rTZH1Nw-8">
          <mxGeometry relative="1" as="geometry" />
        </mxCell>
        <mxCell id="X64Ka9JGiY_M8rTZH1Nw-22" value="" style="edgeStyle=orthogonalEdgeStyle;rounded=0;orthogonalLoop=1;jettySize=auto;html=1;" edge="1" parent="1" source="X64Ka9JGiY_M8rTZH1Nw-6" target="X64Ka9JGiY_M8rTZH1Nw-16">
          <mxGeometry relative="1" as="geometry" />
        </mxCell>
        <mxCell id="X64Ka9JGiY_M8rTZH1Nw-6" value="Suma" style="shape=parallelogram;perimeter=parallelogramPerimeter;whiteSpace=wrap;html=1;fixedSize=1;fillColor=#80FF00;" vertex="1" parent="1">
          <mxGeometry x="-180" y="435" width="120" height="60" as="geometry" />
        </mxCell>
        <mxCell id="X64Ka9JGiY_M8rTZH1Nw-15" value="" style="edgeStyle=orthogonalEdgeStyle;rounded=0;orthogonalLoop=1;jettySize=auto;html=1;" edge="1" parent="1" source="X64Ka9JGiY_M8rTZH1Nw-8" target="X64Ka9JGiY_M8rTZH1Nw-14">
          <mxGeometry relative="1" as="geometry" />
        </mxCell>
        <mxCell id="X64Ka9JGiY_M8rTZH1Nw-8" value="Resta" style="shape=parallelogram;perimeter=parallelogramPerimeter;whiteSpace=wrap;html=1;fixedSize=1;fillColor=#80FF00;" vertex="1" parent="1">
          <mxGeometry x="-450" y="435" width="120" height="60" as="geometry" />
        </mxCell>
        <mxCell id="X64Ka9JGiY_M8rTZH1Nw-13" value="" style="edgeStyle=orthogonalEdgeStyle;rounded=0;orthogonalLoop=1;jettySize=auto;html=1;" edge="1" parent="1" source="X64Ka9JGiY_M8rTZH1Nw-10" target="X64Ka9JGiY_M8rTZH1Nw-12">
          <mxGeometry relative="1" as="geometry" />
        </mxCell>
        <mxCell id="X64Ka9JGiY_M8rTZH1Nw-23" value="" style="edgeStyle=orthogonalEdgeStyle;rounded=0;orthogonalLoop=1;jettySize=auto;html=1;" edge="1" parent="1" source="X64Ka9JGiY_M8rTZH1Nw-10" target="X64Ka9JGiY_M8rTZH1Nw-18">
          <mxGeometry relative="1" as="geometry" />
        </mxCell>
        <mxCell id="X64Ka9JGiY_M8rTZH1Nw-10" value="Multiplicación" style="shape=parallelogram;perimeter=parallelogramPerimeter;whiteSpace=wrap;html=1;fixedSize=1;fillColor=#80FF00;" vertex="1" parent="1">
          <mxGeometry x="420" y="435" width="120" height="60" as="geometry" />
        </mxCell>
        <mxCell id="X64Ka9JGiY_M8rTZH1Nw-24" value="" style="edgeStyle=orthogonalEdgeStyle;rounded=0;orthogonalLoop=1;jettySize=auto;html=1;" edge="1" parent="1" source="X64Ka9JGiY_M8rTZH1Nw-12" target="X64Ka9JGiY_M8rTZH1Nw-20">
          <mxGeometry relative="1" as="geometry" />
        </mxCell>
        <mxCell id="X64Ka9JGiY_M8rTZH1Nw-41" value="" style="edgeStyle=orthogonalEdgeStyle;rounded=0;orthogonalLoop=1;jettySize=auto;html=1;" edge="1" parent="1" source="X64Ka9JGiY_M8rTZH1Nw-12" target="X64Ka9JGiY_M8rTZH1Nw-40">
          <mxGeometry relative="1" as="geometry" />
        </mxCell>
        <mxCell id="X64Ka9JGiY_M8rTZH1Nw-12" value="División" style="shape=parallelogram;perimeter=parallelogramPerimeter;whiteSpace=wrap;html=1;fixedSize=1;fillColor=#80FF00;" vertex="1" parent="1">
          <mxGeometry x="680" y="435" width="120" height="60" as="geometry" />
        </mxCell>
        <mxCell id="X64Ka9JGiY_M8rTZH1Nw-26" value="" style="edgeStyle=orthogonalEdgeStyle;rounded=0;orthogonalLoop=1;jettySize=auto;html=1;" edge="1" parent="1" source="X64Ka9JGiY_M8rTZH1Nw-14" target="X64Ka9JGiY_M8rTZH1Nw-25">
          <mxGeometry relative="1" as="geometry" />
        </mxCell>
        <mxCell id="X64Ka9JGiY_M8rTZH1Nw-14" value="Realizar calculo" style="shape=parallelogram;perimeter=parallelogramPerimeter;whiteSpace=wrap;html=1;fixedSize=1;fillColor=#80FF00;" vertex="1" parent="1">
          <mxGeometry x="-450" y="575" width="120" height="60" as="geometry" />
        </mxCell>
        <mxCell id="X64Ka9JGiY_M8rTZH1Nw-33" value="" style="edgeStyle=orthogonalEdgeStyle;rounded=0;orthogonalLoop=1;jettySize=auto;html=1;" edge="1" parent="1" source="X64Ka9JGiY_M8rTZH1Nw-16" target="X64Ka9JGiY_M8rTZH1Nw-27">
          <mxGeometry relative="1" as="geometry" />
        </mxCell>
        <mxCell id="X64Ka9JGiY_M8rTZH1Nw-16" value="Realizar calculo" style="shape=parallelogram;perimeter=parallelogramPerimeter;whiteSpace=wrap;html=1;fixedSize=1;fillColor=#80FF00;" vertex="1" parent="1">
          <mxGeometry x="-190" y="575" width="120" height="60" as="geometry" />
        </mxCell>
        <mxCell id="X64Ka9JGiY_M8rTZH1Nw-34" value="" style="edgeStyle=orthogonalEdgeStyle;rounded=0;orthogonalLoop=1;jettySize=auto;html=1;" edge="1" parent="1" source="X64Ka9JGiY_M8rTZH1Nw-18" target="X64Ka9JGiY_M8rTZH1Nw-29">
          <mxGeometry relative="1" as="geometry" />
        </mxCell>
        <mxCell id="X64Ka9JGiY_M8rTZH1Nw-18" value="Realizar calculo" style="shape=parallelogram;perimeter=parallelogramPerimeter;whiteSpace=wrap;html=1;fixedSize=1;fillColor=#80FF00;" vertex="1" parent="1">
          <mxGeometry x="413" y="575" width="120" height="60" as="geometry" />
        </mxCell>
        <mxCell id="X64Ka9JGiY_M8rTZH1Nw-35" value="" style="edgeStyle=orthogonalEdgeStyle;rounded=0;orthogonalLoop=1;jettySize=auto;html=1;" edge="1" parent="1" source="X64Ka9JGiY_M8rTZH1Nw-20" target="X64Ka9JGiY_M8rTZH1Nw-31">
          <mxGeometry relative="1" as="geometry" />
        </mxCell>
        <mxCell id="X64Ka9JGiY_M8rTZH1Nw-20" value="Realizar calculo" style="shape=parallelogram;perimeter=parallelogramPerimeter;whiteSpace=wrap;html=1;fixedSize=1;fillColor=#80FF00;" vertex="1" parent="1">
          <mxGeometry x="670" y="575" width="120" height="60" as="geometry" />
        </mxCell>
        <mxCell id="X64Ka9JGiY_M8rTZH1Nw-28" value="" style="edgeStyle=orthogonalEdgeStyle;rounded=0;orthogonalLoop=1;jettySize=auto;html=1;" edge="1" parent="1" source="X64Ka9JGiY_M8rTZH1Nw-25" target="X64Ka9JGiY_M8rTZH1Nw-27">
          <mxGeometry relative="1" as="geometry" />
        </mxCell>
        <mxCell id="X64Ka9JGiY_M8rTZH1Nw-25" value="&quot;Mostrar resultado&quot;" style="shape=parallelogram;perimeter=parallelogramPerimeter;whiteSpace=wrap;html=1;fixedSize=1;fillColor=#80FF00;" vertex="1" parent="1">
          <mxGeometry x="-490" y="715" width="160" height="60" as="geometry" />
        </mxCell>
        <mxCell id="X64Ka9JGiY_M8rTZH1Nw-27" value="&quot;Mostrar resultado&quot;" style="shape=parallelogram;perimeter=parallelogramPerimeter;whiteSpace=wrap;html=1;fixedSize=1;fillColor=#80FF00;" vertex="1" parent="1">
          <mxGeometry x="-250" y="715" width="160" height="60" as="geometry" />
        </mxCell>
        <mxCell id="X64Ka9JGiY_M8rTZH1Nw-39" style="edgeStyle=orthogonalEdgeStyle;rounded=0;orthogonalLoop=1;jettySize=auto;html=1;entryX=1;entryY=0.5;entryDx=0;entryDy=0;" edge="1" parent="1" source="X64Ka9JGiY_M8rTZH1Nw-29" target="X64Ka9JGiY_M8rTZH1Nw-37">
          <mxGeometry relative="1" as="geometry" />
        </mxCell>
        <mxCell id="X64Ka9JGiY_M8rTZH1Nw-29" value="&quot;Mostrar resultado&quot;" style="shape=parallelogram;perimeter=parallelogramPerimeter;whiteSpace=wrap;html=1;fixedSize=1;fillColor=#80FF00;" vertex="1" parent="1">
          <mxGeometry x="380" y="715" width="160" height="60" as="geometry" />
        </mxCell>
        <mxCell id="X64Ka9JGiY_M8rTZH1Nw-36" value="" style="edgeStyle=orthogonalEdgeStyle;rounded=0;orthogonalLoop=1;jettySize=auto;html=1;" edge="1" parent="1" source="X64Ka9JGiY_M8rTZH1Nw-31" target="X64Ka9JGiY_M8rTZH1Nw-29">
          <mxGeometry relative="1" as="geometry" />
        </mxCell>
        <mxCell id="X64Ka9JGiY_M8rTZH1Nw-31" value="&quot;Mostrar resultado&quot;" style="shape=parallelogram;perimeter=parallelogramPerimeter;whiteSpace=wrap;html=1;fixedSize=1;fillColor=#80FF00;" vertex="1" parent="1">
          <mxGeometry x="650" y="715" width="160" height="60" as="geometry" />
        </mxCell>
        <mxCell id="X64Ka9JGiY_M8rTZH1Nw-37" value="FIN" style="ellipse;whiteSpace=wrap;html=1;fillColor=#5EA9FF;" vertex="1" parent="1">
          <mxGeometry x="110" y="705" width="120" height="80" as="geometry" />
        </mxCell>
        <mxCell id="X64Ka9JGiY_M8rTZH1Nw-38" style="edgeStyle=orthogonalEdgeStyle;rounded=0;orthogonalLoop=1;jettySize=auto;html=1;entryX=-0.077;entryY=0.55;entryDx=0;entryDy=0;entryPerimeter=0;" edge="1" parent="1" source="X64Ka9JGiY_M8rTZH1Nw-27" target="X64Ka9JGiY_M8rTZH1Nw-37">
          <mxGeometry relative="1" as="geometry" />
        </mxCell>
        <mxCell id="X64Ka9JGiY_M8rTZH1Nw-43" value="" style="edgeStyle=orthogonalEdgeStyle;rounded=0;orthogonalLoop=1;jettySize=auto;html=1;" edge="1" parent="1" source="X64Ka9JGiY_M8rTZH1Nw-40" target="X64Ka9JGiY_M8rTZH1Nw-42">
          <mxGeometry relative="1" as="geometry" />
        </mxCell>
        <mxCell id="X64Ka9JGiY_M8rTZH1Nw-40" value="División por 0" style="shape=parallelogram;perimeter=parallelogramPerimeter;whiteSpace=wrap;html=1;fixedSize=1;fillColor=#80FF00;" vertex="1" parent="1">
          <mxGeometry x="950" y="435" width="120" height="60" as="geometry" />
        </mxCell>
        <mxCell id="X64Ka9JGiY_M8rTZH1Nw-44" style="edgeStyle=orthogonalEdgeStyle;rounded=0;orthogonalLoop=1;jettySize=auto;html=1;entryX=0.5;entryY=1;entryDx=0;entryDy=0;" edge="1" parent="1" source="X64Ka9JGiY_M8rTZH1Nw-42" target="X64Ka9JGiY_M8rTZH1Nw-37">
          <mxGeometry relative="1" as="geometry" />
        </mxCell>
        <mxCell id="X64Ka9JGiY_M8rTZH1Nw-42" value="Mostrar mensaje de error en ventana" style="shape=parallelogram;perimeter=parallelogramPerimeter;whiteSpace=wrap;html=1;fixedSize=1;fillColor=#80FF00;" vertex="1" parent="1">
          <mxGeometry x="840" y="850" width="230" height="60" as="geometry" />
        </mxCell>
      </root>
    </mxGraphModel>
  </diagram>
</mxfile>
